<?xml version="1.0" encoding="UTF-8" standalone="no"?>
<!DOCTYPE svg PUBLIC "-//W3C//DTD SVG 1.1//EN"
 "http://www.w3.org/Graphics/SVG/1.1/DTD/svg11.dtd">
<!-- Generated by graphviz version 12.2.1 (20241206.2353)
 -->
<!-- Title: Simbad Relational Database Pages: 1 -->
<svg width="1057pt" height="866pt"
 viewBox="0.00 0.00 1057.48 866.50" xmlns="http://www.w3.org/2000/svg" xmlns:xlink="http://www.w3.org/1999/xlink">
<g id="graph0" class="graph" transform="scale(1 1) rotate(0) translate(4 862.5)">
<title>Simbad Relational Database</title>
<polygon fill="white" stroke="none" points="-4,4 -4,-862.5 1053.48,-862.5 1053.48,4 -4,4"/>
<!-- Measurement tables -->
<g id="node1" class="node">
<title>Measurement tables</title>
<polygon fill="lightgray" stroke="lightgray" stroke-width="6" points="0,-341.58 0,-726.58 113.5,-726.58 113.5,-341.58 0,-341.58"/>
<text text-anchor="middle" x="56.75" y="-707.38" font-family="Helvetica Neue, Helvetica, Arial, sans-serif" font-size="16.00">mesHerschel</text>
<polyline fill="none" stroke="lightgray" stroke-width="6" points="0,-699.08 113.5,-699.08"/>
<text text-anchor="middle" x="56.75" y="-679.88" font-family="Helvetica Neue, Helvetica, Arial, sans-serif" font-size="16.00">mesXmm</text>
<polyline fill="none" stroke="lightgray" stroke-width="6" points="0,-671.58 113.5,-671.58"/>
<text text-anchor="middle" x="56.75" y="-652.38" font-family="Helvetica Neue, Helvetica, Arial, sans-serif" font-size="16.00">mesVelocities</text>
<polyline fill="none" stroke="lightgray" stroke-width="6" points="0,-644.08 113.5,-644.08"/>
<text text-anchor="middle" x="56.75" y="-624.88" font-family="Helvetica Neue, Helvetica, Arial, sans-serif" font-size="16.00">mesVar</text>
<polyline fill="none" stroke="lightgray" stroke-width="6" points="0,-616.58 113.5,-616.58"/>
<text text-anchor="middle" x="56.75" y="-597.38" font-family="Helvetica Neue, Helvetica, Arial, sans-serif" font-size="16.00">mesRot</text>
<polyline fill="none" stroke="lightgray" stroke-width="6" points="0,-589.08 113.5,-589.08"/>
<text text-anchor="middle" x="56.75" y="-569.88" font-family="Helvetica Neue, Helvetica, Arial, sans-serif" font-size="16.00">mesPM</text>
<polyline fill="none" stroke="lightgray" stroke-width="6" points="0,-561.58 113.5,-561.58"/>
<text text-anchor="middle" x="56.75" y="-542.38" font-family="Helvetica Neue, Helvetica, Arial, sans-serif" font-size="16.00">mesPLX</text>
<polyline fill="none" stroke="lightgray" stroke-width="6" points="0,-534.08 113.5,-534.08"/>
<text text-anchor="middle" x="56.75" y="-514.88" font-family="Helvetica Neue, Helvetica, Arial, sans-serif" font-size="16.00">mesIUE</text>
<polyline fill="none" stroke="lightgray" stroke-width="6" points="0,-506.58 113.5,-506.58"/>
<text text-anchor="middle" x="56.75" y="-487.38" font-family="Helvetica Neue, Helvetica, Arial, sans-serif" font-size="16.00">mesISO</text>
<polyline fill="none" stroke="lightgray" stroke-width="6" points="0,-479.08 113.5,-479.08"/>
<text text-anchor="middle" x="56.75" y="-459.88" font-family="Helvetica Neue, Helvetica, Arial, sans-serif" font-size="16.00">mesFe_h</text>
<polyline fill="none" stroke="lightgray" stroke-width="6" points="0,-451.58 113.5,-451.58"/>
<text text-anchor="middle" x="56.75" y="-432.38" font-family="Helvetica Neue, Helvetica, Arial, sans-serif" font-size="16.00">mesDiameter</text>
<polyline fill="none" stroke="lightgray" stroke-width="6" points="0,-424.08 113.5,-424.08"/>
<text text-anchor="middle" x="56.75" y="-404.88" font-family="Helvetica Neue, Helvetica, Arial, sans-serif" font-size="16.00">mesDistance</text>
<polyline fill="none" stroke="lightgray" stroke-width="6" points="0,-396.58 113.5,-396.58"/>
<text text-anchor="middle" x="56.75" y="-377.38" font-family="Helvetica Neue, Helvetica, Arial, sans-serif" font-size="16.00">mesSpT</text>
<polyline fill="none" stroke="lightgray" stroke-width="6" points="0,-369.08 113.5,-369.08"/>
<text text-anchor="middle" x="56.75" y="-349.88" font-family="Helvetica Neue, Helvetica, Arial, sans-serif" font-size="16.00">mesOtype</text>
</g>
<!-- basic -->
<g id="node2" class="node">
<title>basic</title>
<g id="a_node2"><a xlink:title="General data about an astronomical object">
<polygon fill="lightgray" stroke="lightgray" stroke-width="6" points="329.35,-568.93 275.1,-568.93 275.1,-532.93 329.35,-532.93 329.35,-568.93"/>
<text text-anchor="middle" x="302.22" y="-545.48" font-family="Helvetica Neue, Helvetica, Arial, sans-serif" font-size="16.00">basic</text>
</a>
</g>
</g>
<!-- basic&#45;&#45;Measurement tables -->
<g id="edge1" class="edge">
<title>basic&#45;&#45;Measurement tables</title>
<g id="a_edge1"><a xlink:title="oid:oidref">
<path fill="none" stroke="#9eadc8" stroke-width="7" d="M272.12,-548.87C233.46,-546.21 165.48,-541.55 116.21,-538.16"/>
</a>
</g>
</g>
<!-- allfluxes -->
<g id="node3" class="node">
<title>allfluxes</title>
<g id="a_node3"><a xlink:title="all flux/magnitudes U,B,V,I,J,H,K,u_,g_,r_,i_,z_">
<polygon fill="lightgray" stroke="lightgray" stroke-width="6" points="264.89,-321.94 191.14,-321.94 191.14,-285.94 264.89,-285.94 264.89,-321.94"/>
<text text-anchor="middle" x="228.01" y="-298.49" font-family="Helvetica Neue, Helvetica, Arial, sans-serif" font-size="16.00">allfluxes</text>
</a>
</g>
</g>
<!-- allfluxes&#45;&#45;basic -->
<g id="edge8" class="edge">
<title>allfluxes&#45;&#45;basic</title>
<g id="a_edge8"><a xlink:title="oidref:oid">
<path fill="none" stroke="#fe9599" stroke-width="7" d="M234.21,-324.57C248.18,-371.07 281.99,-483.58 295.99,-530.19"/>
</a>
</g>
</g>
<!-- alltypes -->
<g id="node4" class="node">
<title>alltypes</title>
<g id="a_node4"><a xlink:title="all object types concatenated with pipe">
<polygon fill="lightgray" stroke="lightgray" stroke-width="6" points="306.23,-852.71 234.73,-852.71 234.73,-816.71 306.23,-816.71 306.23,-852.71"/>
<text text-anchor="middle" x="270.48" y="-829.26" font-family="Helvetica Neue, Helvetica, Arial, sans-serif" font-size="16.00">alltypes</text>
</a>
</g>
</g>
<!-- alltypes&#45;&#45;basic -->
<g id="edge17" class="edge">
<title>alltypes&#45;&#45;basic</title>
<g id="a_edge17"><a xlink:title="oidref:oid">
<path fill="none" stroke="#fe9599" stroke-width="7" d="M272.82,-813.84C278.69,-761.36 294.01,-624.34 299.89,-571.83"/>
</a>
</g>
</g>
<!-- author -->
<g id="node5" class="node">
<title>author</title>
<g id="a_node5"><a xlink:title="Author of a bibliographic reference">
<polygon fill="lightgray" stroke="lightgray" stroke-width="6" points="909.91,-858.5 848.16,-858.5 848.16,-822.5 909.91,-822.5 909.91,-858.5"/>
<text text-anchor="middle" x="879.04" y="-835.05" font-family="Helvetica Neue, Helvetica, Arial, sans-serif" font-size="16.00">author</text>
</a>
</g>
</g>
<!-- ref -->
<g id="node18" class="node">
<title>ref</title>
<g id="a_node18"><a xlink:title="Bibliographic reference">
<polygon fill="lightgray" stroke="lightgray" stroke-width="6" points="827.23,-630.85 773.23,-630.85 773.23,-594.85 827.23,-594.85 827.23,-630.85"/>
<text text-anchor="middle" x="800.23" y="-607.4" font-family="Helvetica Neue, Helvetica, Arial, sans-serif" font-size="16.00">ref</text>
</a>
</g>
</g>
<!-- author&#45;&#45;ref -->
<g id="edge11" class="edge">
<title>author&#45;&#45;ref</title>
<g id="a_edge11"><a xlink:title="oidbibref:oidbib">
<path fill="none" stroke="#c7ffda" stroke-width="7" d="M871.9,-819.89C856.94,-776.66 822.4,-676.91 807.4,-633.57"/>
</a>
</g>
</g>
<!-- biblio -->
<g id="node6" class="node">
<title>biblio</title>
<g id="a_node6"><a xlink:title="Bibliography">
<polygon fill="lightgray" stroke="lightgray" stroke-width="6" points="192.26,-828.14 136.51,-828.14 136.51,-792.14 192.26,-792.14 192.26,-828.14"/>
<text text-anchor="middle" x="164.39" y="-804.69" font-family="Helvetica Neue, Helvetica, Arial, sans-serif" font-size="16.00">biblio</text>
</a>
</g>
</g>
<!-- biblio&#45;&#45;basic -->
<g id="edge14" class="edge">
<title>biblio&#45;&#45;basic</title>
<g id="a_edge14"><a xlink:title="oidref:oid">
<path fill="none" stroke="#f0a8ed" stroke-width="7" d="M175.43,-789.36C201.24,-740.83 265.26,-620.44 291.12,-571.81"/>
</a>
</g>
</g>
<!-- cat -->
<g id="node7" class="node">
<title>cat</title>
<g id="a_node7"><a xlink:title="Catalogues name">
<polygon fill="lightgray" stroke="lightgray" stroke-width="6" points="711,-328 657,-328 657,-292 711,-292 711,-328"/>
<text text-anchor="middle" x="684" y="-304.55" font-family="Helvetica Neue, Helvetica, Arial, sans-serif" font-size="16.00">cat</text>
</a>
</g>
</g>
<!-- filter -->
<g id="node8" class="node">
<title>filter</title>
<g id="a_node8"><a xlink:title="Description of a flux filter">
<polygon fill="lightgray" stroke="lightgray" stroke-width="6" points="332.41,-36 278.41,-36 278.41,0 332.41,0 332.41,-36"/>
<text text-anchor="middle" x="305.41" y="-12.55" font-family="Helvetica Neue, Helvetica, Arial, sans-serif" font-size="16.00">filter</text>
</a>
</g>
</g>
<!-- flux -->
<g id="node9" class="node">
<title>flux</title>
<g id="a_node9"><a xlink:title="Magnitude/Flux information about an astronomical object">
<polygon fill="lightgray" stroke="lightgray" stroke-width="6" points="363.62,-261.29 309.62,-261.29 309.62,-225.29 363.62,-225.29 363.62,-261.29"/>
<text text-anchor="middle" x="336.62" y="-237.84" font-family="Helvetica Neue, Helvetica, Arial, sans-serif" font-size="16.00">flux</text>
</a>
</g>
</g>
<!-- flux&#45;&#45;basic -->
<g id="edge6" class="edge">
<title>flux&#45;&#45;basic</title>
<g id="a_edge6"><a xlink:title="oidref:oid">
<path fill="none" stroke="#fdd791" stroke-width="7" d="M334.31,-263.95C328.06,-319.86 310.86,-473.68 304.57,-529.96"/>
</a>
</g>
</g>
<!-- flux&#45;&#45;filter -->
<g id="edge7" class="edge">
<title>flux&#45;&#45;filter</title>
<g id="a_edge7"><a xlink:title="filter:filtername">
<path fill="none" stroke="#f4b6c2" stroke-width="7" d="M333.74,-222.5C327.8,-179.58 314.22,-81.62 308.28,-38.74"/>
</a>
</g>
</g>
<!-- h_link -->
<g id="node10" class="node">
<title>h_link</title>
<g id="a_node10"><a xlink:title="hierarchy of membership measure">
<polygon fill="lightgray" stroke="lightgray" stroke-width="6" points="158.88,-332.89 100.88,-332.89 100.88,-296.89 158.88,-296.89 158.88,-332.89"/>
<text text-anchor="middle" x="129.88" y="-309.44" font-family="Helvetica Neue, Helvetica, Arial, sans-serif" font-size="16.00">h_link</text>
</a>
</g>
</g>
<!-- h_link&#45;&#45;basic -->
<g id="edge12" class="edge">
<title>h_link&#45;&#45;basic</title>
<g id="a_edge12"><a xlink:title="parent:oid">
<path fill="none" stroke="#fec1a7" stroke-width="7" d="M133.92,-335.69C162.83,-375.28 239.68,-480.53 275.75,-529.94"/>
</a>
</g>
</g>
<!-- h_link&#45;&#45;basic -->
<g id="edge13" class="edge">
<title>h_link&#45;&#45;basic</title>
<g id="a_edge13"><a xlink:title="child:oid">
<path fill="none" stroke="#4ce0b3" stroke-width="7" d="M156.25,-335.75C192.27,-385.08 269.21,-490.45 298.16,-530.11"/>
</a>
</g>
</g>
<!-- has_ref -->
<g id="node11" class="node">
<title>has_ref</title>
<g id="a_node11"><a xlink:title="Associations between astronomical objects and their bibliographic references">
<polygon fill="lightgray" stroke="lightgray" stroke-width="6" points="605.78,-577.06 538.03,-577.06 538.03,-541.06 605.78,-541.06 605.78,-577.06"/>
<text text-anchor="middle" x="571.91" y="-553.61" font-family="Helvetica Neue, Helvetica, Arial, sans-serif" font-size="16.00">has_ref</text>
</a>
</g>
</g>
<!-- has_ref&#45;&#45;basic -->
<g id="edge10" class="edge">
<title>has_ref&#45;&#45;basic</title>
<g id="a_edge10"><a xlink:title="oidref:oid">
<path fill="none" stroke="#9eadc8" stroke-width="7" d="M535.26,-557.96C481.39,-556.33 381.88,-553.34 332.15,-551.84"/>
</a>
</g>
</g>
<!-- has_ref&#45;&#45;ref -->
<g id="edge9" class="edge">
<title>has_ref&#45;&#45;ref</title>
<g id="a_edge9"><a xlink:title="oidbibref:oidbib">
<path fill="none" stroke="#fff196" stroke-width="7" d="M608.59,-567.71C653.59,-578.31 729.01,-596.07 770.54,-605.86"/>
</a>
</g>
</g>
<!-- ident -->
<g id="node12" class="node">
<title>ident</title>
<g id="a_node12"><a xlink:title="Identifiers of an astronomical object">
<polygon fill="lightgray" stroke="lightgray" stroke-width="6" points="470.75,-395.02 416.75,-395.02 416.75,-359.02 470.75,-359.02 470.75,-395.02"/>
<text text-anchor="middle" x="443.75" y="-371.57" font-family="Helvetica Neue, Helvetica, Arial, sans-serif" font-size="16.00">ident</text>
</a>
</g>
</g>
<!-- ident&#45;&#45;basic -->
<g id="edge5" class="edge">
<title>ident&#45;&#45;basic</title>
<g id="a_edge5"><a xlink:title="oidref:oid">
<path fill="none" stroke="#f0a8ed" stroke-width="7" d="M426.68,-398C399.4,-431.52 346.31,-496.76 319.13,-530.15"/>
</a>
</g>
</g>
<!-- ids -->
<g id="node13" class="node">
<title>ids</title>
<g id="a_node13"><a xlink:title="all names concatenated with pipe">
<polygon fill="lightgray" stroke="lightgray" stroke-width="6" points="117.17,-771.28 63.17,-771.28 63.17,-735.28 117.17,-735.28 117.17,-771.28"/>
<text text-anchor="middle" x="90.17" y="-747.83" font-family="Helvetica Neue, Helvetica, Arial, sans-serif" font-size="16.00">ids</text>
</a>
</g>
</g>
<!-- ids&#45;&#45;basic -->
<g id="edge2" class="edge">
<title>ids&#45;&#45;basic</title>
<g id="a_edge2"><a xlink:title="oidref:oid">
<path fill="none" stroke="#c7ffda" stroke-width="7" d="M112.06,-732.39C152.8,-693.51 239.8,-610.5 280.45,-571.71"/>
</a>
</g>
</g>
<!-- journals -->
<g id="node14" class="node">
<title>journals</title>
<g id="a_node14"><a xlink:title="Description of all used journals in the database">
<polygon fill="lightgray" stroke="lightgray" stroke-width="6" points="983.95,-445.17 911.7,-445.17 911.7,-409.17 983.95,-409.17 983.95,-445.17"/>
<text text-anchor="middle" x="947.83" y="-421.72" font-family="Helvetica Neue, Helvetica, Arial, sans-serif" font-size="16.00">journals</text>
</a>
</g>
</g>
<!-- keywords -->
<g id="node15" class="node">
<title>keywords</title>
<g id="a_node15"><a xlink:title="List of keywords in a paper">
<polygon fill="lightgray" stroke="lightgray" stroke-width="6" points="1049.48,-671.55 965.23,-671.55 965.23,-635.55 1049.48,-635.55 1049.48,-671.55"/>
<text text-anchor="middle" x="1007.35" y="-648.1" font-family="Helvetica Neue, Helvetica, Arial, sans-serif" font-size="16.00">keywords</text>
</a>
</g>
</g>
<!-- keywords&#45;&#45;ref -->
<g id="edge15" class="edge">
<title>keywords&#45;&#45;ref</title>
<g id="a_edge15"><a xlink:title="oidbibref:oidbib">
<path fill="none" stroke="#fdd791" stroke-width="7" d="M962.41,-644.72C922.31,-636.84 864.74,-625.53 830.06,-618.72"/>
</a>
</g>
</g>
<!-- otypedef -->
<g id="node16" class="node">
<title>otypedef</title>
<g id="a_node16"><a xlink:title="all names and definitions for the object types">
<polygon fill="lightgray" stroke="lightgray" stroke-width="6" points="427.4,-800.3 348.4,-800.3 348.4,-764.3 427.4,-764.3 427.4,-800.3"/>
<text text-anchor="middle" x="387.9" y="-776.85" font-family="Helvetica Neue, Helvetica, Arial, sans-serif" font-size="16.00">otypedef</text>
</a>
</g>
</g>
<!-- otypedef&#45;&#45;basic -->
<g id="edge4" class="edge">
<title>otypedef&#45;&#45;basic</title>
<g id="a_edge4"><a xlink:title="otype:otype">
<path fill="none" stroke="#4ce0b3" stroke-width="7" d="M380.15,-761.36C363.83,-717.31 326.14,-615.52 309.9,-571.66"/>
</a>
</g>
</g>
<!-- otypes -->
<g id="node17" class="node">
<title>otypes</title>
<g id="a_node17"><a xlink:title="List of all object types associated with an object">
<polygon fill="lightgray" stroke="lightgray" stroke-width="6" points="472.91,-662.15 408.16,-662.15 408.16,-626.15 472.91,-626.15 472.91,-662.15"/>
<text text-anchor="middle" x="440.53" y="-638.7" font-family="Helvetica Neue, Helvetica, Arial, sans-serif" font-size="16.00">otypes</text>
</a>
</g>
</g>
<!-- otypedef&#45;&#45;otypes -->
<g id="edge3" class="edge">
<title>otypedef&#45;&#45;otypes</title>
<g id="a_edge3"><a xlink:title="otype:otype">
<path fill="none" stroke="#fec1a7" stroke-width="7" d="M395.89,-761.32C405.84,-735.2 422.73,-690.87 432.64,-664.88"/>
</a>
</g>
</g>
<!-- otypes&#45;&#45;basic -->
<g id="edge18" class="edge">
<title>otypes&#45;&#45;basic</title>
<g id="a_edge18"><a xlink:title="oidref:oid">
<path fill="none" stroke="#fff196" stroke-width="7" d="M409.49,-623.23C386.4,-607.66 355.05,-586.54 332.21,-571.14"/>
</a>
</g>
</g>
<!-- ref&#45;&#45;journals -->
<g id="edge16" class="edge">
<title>ref&#45;&#45;journals</title>
<g id="a_edge16"><a xlink:title="journal:journal">
<path fill="none" stroke="#f4b6c2" stroke-width="7" d="M816.87,-591.91C845.29,-556.16 902.86,-483.74 931.24,-448.03"/>
</a>
</g>
</g>
</g>
</svg>
